<svg xmlns="http://www.w3.org/2000/svg" viewBox="0 0 64 64" aria-label="WeChat logo"><g fill="none" stroke="#fff" stroke-width="4.2" stroke-linecap="round" stroke-linejoin="round"><path d="M28 17c-11 0-20 7-20 16 0 5 3 10 8 13l-2 7 8-4c2 .5 4 .8 6 .8 11 0 20-7 20-16S39 17 28 17z" fill="rgba(255,255,255,.18)"/><path d="M39 29c9 0 16 6 16 13 0 4-2 8-6 10l2 5-6-3c-2 .5-3 .7-5 .7-9 0-16-6-16-13s7-12.7 15-12.7z" fill="rgba(255,255,255,.10)"/><circle cx="21" cy="31" r="1.8" fill="#fff" stroke="none"/><circle cx="34" cy="31" r="1.8" fill="#fff" stroke="none"/><circle cx="36" cy="42" r="1.5" fill="#fff" stroke="none"/><circle cx="47" cy="42" r="1.5" fill="#fff" stroke="none"/></g></svg>